<svg xmlns="http://www.w3.org/2000/svg">

  <style>
    :root > svg {
      display:none;
    }
    :root > svg:target {
      display:block;
    }
  </style>

  <svg id="boat" viewBox="0 0 42 15" fill="none" xmlns="http://www.w3.org/2000/svg">
<path d="M39.555 12.056L1.57287 8.06841C1.28101 8.03777 1.0843 8.33255 1.23548 8.56735C3.66312 12.3403 9.41009 15 16.1 15H38.7584C38.9124 15 39.0475 14.9068 39.093 14.7698L39.8504 12.476C39.9148 12.281 39.7727 12.0788 39.555 12.056Z" fill="#011C40"/>
<path d="M41.8896 5.51766C41.7782 5.35594 41.597 5.24833 41.3933 5.22287L30.8932 3.91844C30.5145 3.87213 30.1582 4.1219 30.1065 4.47868C30.0547 4.83545 30.3248 5.16418 30.7078 5.21172L31.8964 5.35915C32.07 5.3807 32.2002 5.51897 32.2002 5.68199V6.69033C32.2002 6.884 32.0195 7.03534 31.8131 7.01447L29.0131 6.73466C28.8353 6.71769 28.7002 6.57744 28.7002 6.41113V3.55647C28.7002 3.49189 28.7205 3.42929 28.759 3.37579L29.9826 1.66575C30.1226 1.47009 30.1387 1.21962 30.0253 1.01028C29.9112 0.800253 29.6852 0.66329 29.4332 0.652208L14.7331 3.06688e-05C14.4972 -0.00195651 14.2683 0.0926639 14.1304 0.272657C14.1304 0.272657 11.3332 3.93541 10.72 4.74152C10.6465 4.83805 10.5233 4.88956 10.3973 4.87649L0.774214 3.91653C0.575451 3.89697 0.379396 3.95635 0.231739 4.07956C0.0847386 4.20353 0 4.37962 0 4.56481C0 5.19291 0.0875276 5.80856 0.252739 6.40601C0.289161 6.53778 0.412372 6.63362 0.55724 6.64929L40.1052 10.8012C40.2725 10.8188 40.4293 10.7229 40.479 10.5729L41.9694 6.06093C42.0295 5.87773 42.0001 5.67878 41.8896 5.51766ZM20.2007 1.90513L19.6547 5.46745C19.6281 5.64026 19.4635 5.76354 19.2767 5.74596C17.911 5.61748 12.7799 5.11465 12.7799 5.11465C12.5139 5.0879 12.3768 4.80419 12.5321 4.60073L14.9366 1.46428C15.0059 1.37424 15.1193 1.32273 15.2383 1.328L19.871 1.53345C20.0768 1.54254 20.23 1.71466 20.2007 1.90513ZM27.7894 2.3806L27.3589 2.98065C27.3204 3.03415 27.3001 3.09736 27.3001 3.16194V6.20187C27.3001 6.39554 27.1195 6.54687 26.913 6.52601L21.3577 5.97166C21.161 5.95209 21.0203 5.78379 21.0483 5.6012L21.6146 1.9078C21.6398 1.74149 21.7973 1.62019 21.9779 1.62799L27.5149 1.87386C27.7866 1.88556 27.9406 2.16927 27.7894 2.3806ZM36.4001 7.1097C36.4001 7.30337 36.2195 7.45471 36.013 7.43384C36.013 7.43384 34.5598 7.28121 33.9088 7.20952C33.7324 7.19064 33.6001 7.051 33.6001 6.88599V5.94292C33.6001 5.74596 33.7863 5.59333 33.9963 5.61939L36.0963 5.88025C36.2699 5.90241 36.4001 6.04068 36.4001 6.20378V7.1097ZM40.2662 6.78228L40.0065 7.56752C39.9576 7.71625 39.8014 7.81209 39.6348 7.79581L38.1123 7.64387C37.9352 7.62629 37.8001 7.48604 37.8001 7.31973V6.46532C37.8001 6.26836 37.9863 6.11573 38.1963 6.14179L39.9778 6.3629C40.192 6.38966 40.3299 6.58929 40.2662 6.78228Z" fill="#011C40"/>
</svg>

<svg id="all-inclusive" viewBox="0 0 38 21" fill="none" xmlns="http://www.w3.org/2000/svg">
<path d="M28.7534 2.21506L26.4398 0L16.0732 9.93254L18.3868 12.1476L28.7534 2.21506ZM35.6945 0L18.3787 16.5699L11.5602 10.0421L9.24656 12.2572L18.3787 21L38 2.21506L35.6945 0ZM0 12.2572L9.1321 21L11.4458 18.7849L2.31368 10.0421L0 12.2572Z" fill="#011C40"/>
</svg>

<svg id="liner" viewBox="0 0 27 32" fill="none" xmlns="http://www.w3.org/2000/svg">
<path d="M4.40549 16.3962L13.2165 9.93576C13.4162 9.8063 13.6711 9.8063 13.8708 9.93576L22.7254 16.3962V8.68818C22.7739 7.6312 21.9743 6.7343 20.9396 6.68484C20.9242 6.68407 20.9089 6.68356 20.8934 6.68322H6.23749C5.20189 6.70667 4.38094 7.58319 4.4039 8.6411C4.40423 8.6568 4.40473 8.67249 4.40549 8.68818V16.3962Z" fill="#011C40"/>
<path d="M15.7464 0H11.3845V5.34662H15.7464V0Z" fill="#011C40"/>
<path d="M24.2956 30.1638L27 21.03L23.2052 18.3122L22.9434 18.1785L14.0016 11.8072V30.6094H13.5217L12.6929 30.5649V11.8072L0 21.03L2.79163 30.1193L4.4039 31.9904C4.4039 31.9904 5.7624 31.9904 7.15817 31.9904C7.15817 31.9904 12.2467 31.997 13.5218 31.9904C14.8198 32.012 17.1251 31.9904 17.1251 31.9904H22.8127L24.2956 30.1638Z" fill="#011C40"/>
</svg>


  </svg>
